<?xml version="1.0" encoding="UTF-8"?> <svg xmlns="http://www.w3.org/2000/svg" width="50" height="50" viewBox="0 0 50 50" fill="none"> <rect width="50" height="50" rx="25" fill="#00CF00"></rect> <path d="M25.0637 16C19.971 16 15.8281 20.1431 15.8281 25.2356C15.8281 30.3283 19.9712 34.4712 25.0637 34.4712C30.1562 34.4712 34.2993 30.3281 34.2993 25.2356C34.2996 20.1429 30.1565 16 25.0637 16ZM25.0637 33.0023C20.7814 33.0023 17.2971 29.5181 17.2971 25.2356C17.2971 20.9532 20.7813 17.469 25.0637 17.469C29.3458 17.469 32.8297 20.9532 32.8297 25.2356C32.8297 29.5181 29.3458 33.0023 25.0637 33.0023Z" fill="#F8F5F0"></path> <path d="M25.067 19.0312C21.6482 19.0312 18.8672 21.8126 18.8672 25.2309C18.8672 28.6494 21.6484 31.4303 25.067 31.4303C28.4855 31.4303 31.2662 28.6491 31.2662 25.2309C31.2665 21.8124 28.4855 19.0312 25.067 19.0312ZM25.067 29.9613C22.4584 29.9613 20.3363 27.8392 20.3363 25.2309C20.3363 22.6223 22.4584 20.5003 25.067 20.5003C27.6753 20.5003 29.7972 22.6225 29.7972 25.2309C29.7972 27.8392 27.6753 29.9613 25.067 29.9613Z" fill="#F8F5F0"></path> <path d="M41.0018 21.1165C41.0018 19.1201 39.6837 17.4961 38.0634 17.4961C36.4431 17.4961 35.125 19.1204 35.125 21.1165C35.125 22.7996 36.0635 24.2143 37.3288 24.6177V32.3623H38.7978V24.6177C40.0633 24.2143 41.0018 22.7996 41.0018 21.1165ZM38.0634 23.2677C37.267 23.2677 36.5943 22.2826 36.5943 21.1165C36.5943 19.9503 37.2673 18.9652 38.0634 18.9652C38.8598 18.9652 39.5325 19.9503 39.5325 21.1165C39.5327 22.2826 38.8598 23.2677 38.0634 23.2677Z" fill="#F8F5F0"></path> <path d="M13.7341 21.905C13.7341 22.3101 13.4045 22.6397 12.9995 22.6397H12.8364V18.6105H11.3673V22.6397H11.2038C10.7987 22.6397 10.4691 22.3101 10.4691 21.905V18.5586H9V21.905C9 23.12 9.98848 24.1088 11.2038 24.1088H11.3673V32.3584H12.8364V24.1088H12.9995C14.2145 24.1088 15.2032 23.12 15.2032 21.905V18.5586H13.7341V21.905Z" fill="#F8F5F0"></path> </svg> 