<?xml version="1.0" encoding="UTF-8"?> <svg xmlns="http://www.w3.org/2000/svg" width="38" height="38" viewBox="0 0 38 38" fill="none"> <mask id="path-1-inside-1_719_122" fill="white"> <path d="M34.8984 24.0338C34.9611 23.9166 34.9803 23.7841 34.965 23.6563C34.965 23.6563 33.597 16.5156 33.597 16.5156C33.4205 15.5935 32.6114 14.9242 31.6732 14.9242H30.9214C31.0614 14.6015 30.9851 13.8648 31.0042 13.5208C31.0042 13.3728 30.9444 13.241 30.8522 13.1395C31.0931 12.7461 30.9755 11.9837 31.0042 11.5457C31.0042 11.3977 30.9444 11.2659 30.8522 11.1644C31.093 10.7674 30.9756 10.0117 31.0042 9.57113C31.0042 9.25547 30.7484 9 30.433 9H25.2704C24.955 9 24.6993 9.25547 24.6993 9.57117C24.715 10.0207 24.6292 10.7666 24.8513 11.1644C24.6026 11.367 24.7266 12.1422 24.6993 12.4622C24.6993 12.7045 24.756 12.9326 24.8513 13.1396C24.7591 13.241 24.6993 13.3728 24.6993 13.5208C24.7124 13.8674 24.6511 14.6063 24.7821 14.9242H23.7734C23.9158 14.6079 23.8352 13.8608 23.8562 13.5208C23.8562 13.2051 23.6004 12.9497 23.285 12.9497H19.8128C19.4974 12.9497 19.2416 13.2051 19.2416 13.5208C19.2545 13.8682 19.1938 14.6053 19.3244 14.9242C19.3244 14.9242 16.9595 14.9242 16.9595 14.9242V13.3997C17.6271 13.168 18.1107 12.5395 18.1107 11.7939V10.2701C18.1107 9.95437 17.855 9.6989 17.5396 9.6989H15.237C14.9216 9.6989 14.6659 9.95437 14.6659 10.2701V11.7939C14.6659 12.5395 15.1495 13.168 15.8171 13.3997V14.9242H13.1071V13.3997C13.7747 13.168 14.2584 12.5395 14.2584 11.7939V10.2701C14.2584 9.95437 14.0027 9.6989 13.6872 9.6989H11.3844C11.069 9.6989 10.8133 9.95437 10.8133 10.2701V11.7939C10.8133 12.5396 11.2971 13.1681 11.9648 13.3997V14.9242H9.25452V13.3997C9.92215 13.1681 10.4058 12.5396 10.4058 11.7939V10.2701C10.4058 9.95437 10.15 9.6989 9.83461 9.6989H7.53209C7.21666 9.6989 6.96092 9.95437 6.96092 10.2701V11.7939C6.96092 12.5395 7.44458 13.168 8.11218 13.3997V14.9242H6.29185C5.35366 14.9242 4.5446 15.5936 4.36834 16.515C4.36864 16.5689 2.9789 23.66 3.00062 23.7101C2.96906 24.6021 4.15275 24.315 4.6291 24.1988V28.4834C4.6291 28.7991 4.88485 29.0545 5.20027 29.0545H32.7648C33.0802 29.0545 33.336 28.7991 33.336 28.4834V24.1985C33.7379 24.2756 34.5911 24.5577 34.8984 24.0338ZM15.8082 10.8412H16.9684V11.7939C16.9694 12.1171 16.694 12.3745 16.3721 12.3578C16.0612 12.3578 15.8082 12.1046 15.8082 11.7939V10.8412ZM11.9556 10.8412H13.1161V11.7939C13.1171 12.1172 12.8415 12.3746 12.5195 12.3578C12.2086 12.3578 11.9556 12.1046 11.9556 11.7939V10.8412ZM8.10327 10.8412H9.26346V11.7939C9.26445 12.1172 8.98889 12.3746 8.66719 12.3578C8.35623 12.3578 8.10327 12.1046 8.10327 11.7939V10.8412ZM25.8416 12.4622V12.1169C25.8416 12.1169 29.631 12.1172 29.8618 12.1169C29.8618 12.1169 29.8618 12.4622 29.8618 12.4622C29.8618 12.731 29.6432 12.9497 29.3743 12.9497H26.3291C26.0603 12.9497 25.8416 12.731 25.8416 12.4622ZM25.8416 10.1423H29.8618V10.487C29.8618 10.7559 29.6432 10.9746 29.3743 10.9746H26.3291C26.0603 10.9746 25.8416 10.7559 25.8416 10.487L25.8416 10.1423ZM25.8416 14.4367V14.092C25.8416 14.092 29.631 14.0923 29.8618 14.092C29.8618 14.092 29.8618 14.4367 29.8618 14.4367C29.8618 14.7056 29.6432 14.9242 29.3743 14.9242H26.3291C26.0603 14.9242 25.8416 14.7056 25.8416 14.4367ZM20.384 14.4367V14.092H22.7138V14.4367C22.7138 14.7056 22.4952 14.9242 22.2263 14.9242H20.8715C20.6026 14.9242 20.384 14.7056 20.384 14.4367ZM5.49006 16.7297C5.56369 16.3454 5.90087 16.0665 6.29187 16.0665C10.2577 16.0663 31.6732 16.0665 31.6732 16.0665C32.0642 16.0665 32.4014 16.3454 32.475 16.7303L33.6976 23.1113C33.3395 23.0186 33.0818 22.8556 32.7855 22.6657C31.5966 21.7276 29.4904 21.7369 28.3151 22.6658C27.8555 22.9602 27.4926 23.1928 26.6964 23.1928C24.9068 23.147 24.8607 21.9192 22.8424 21.9585C21.7115 21.9584 21.1247 22.3344 20.6068 22.6657C19.7588 23.3611 18.218 23.3627 17.3694 22.6656C16.1939 21.7325 14.0752 21.7331 12.8988 22.6658C12.4389 22.9602 12.0755 23.1928 11.2787 23.1928C10.4808 23.1928 10.1171 22.9602 9.65697 22.6657C8.49974 21.7375 6.35008 21.7315 5.18244 22.6658C4.88534 22.8558 4.62681 23.019 4.26743 23.1116L5.49006 16.7297ZM32.1936 27.9122H5.77147V23.6448C6.6446 22.934 8.16698 22.9212 9.04119 23.6279C10.2248 24.5635 12.3405 24.5581 13.5146 23.6278C13.9745 23.3333 14.3379 23.1007 15.1347 23.1007C16.9241 23.1466 16.97 24.3741 18.9876 24.3351C21.0066 24.374 21.0515 23.1468 22.8424 23.1007C23.6387 23.1007 24.0018 23.3333 24.4614 23.6279C25.6287 24.5582 27.7582 24.5619 28.9314 23.6278C29.3911 23.3333 29.7542 23.1007 30.5504 23.1007C31.3612 23.1012 31.7191 23.3401 32.1936 23.6434L32.1936 27.9122Z"></path> </mask> <path d="M34.8984 24.0338C34.9611 23.9166 34.9803 23.7841 34.965 23.6563C34.965 23.6563 33.597 16.5156 33.597 16.5156C33.4205 15.5935 32.6114 14.9242 31.6732 14.9242H30.9214C31.0614 14.6015 30.9851 13.8648 31.0042 13.5208C31.0042 13.3728 30.9444 13.241 30.8522 13.1395C31.0931 12.7461 30.9755 11.9837 31.0042 11.5457C31.0042 11.3977 30.9444 11.2659 30.8522 11.1644C31.093 10.7674 30.9756 10.0117 31.0042 9.57113C31.0042 9.25547 30.7484 9 30.433 9H25.2704C24.955 9 24.6993 9.25547 24.6993 9.57117C24.715 10.0207 24.6292 10.7666 24.8513 11.1644C24.6026 11.367 24.7266 12.1422 24.6993 12.4622C24.6993 12.7045 24.756 12.9326 24.8513 13.1396C24.7591 13.241 24.6993 13.3728 24.6993 13.5208C24.7124 13.8674 24.6511 14.6063 24.7821 14.9242H23.7734C23.9158 14.6079 23.8352 13.8608 23.8562 13.5208C23.8562 13.2051 23.6004 12.9497 23.285 12.9497H19.8128C19.4974 12.9497 19.2416 13.2051 19.2416 13.5208C19.2545 13.8682 19.1938 14.6053 19.3244 14.9242C19.3244 14.9242 16.9595 14.9242 16.9595 14.9242V13.3997C17.6271 13.168 18.1107 12.5395 18.1107 11.7939V10.2701C18.1107 9.95437 17.855 9.6989 17.5396 9.6989H15.237C14.9216 9.6989 14.6659 9.95437 14.6659 10.2701V11.7939C14.6659 12.5395 15.1495 13.168 15.8171 13.3997V14.9242H13.1071V13.3997C13.7747 13.168 14.2584 12.5395 14.2584 11.7939V10.2701C14.2584 9.95437 14.0027 9.6989 13.6872 9.6989H11.3844C11.069 9.6989 10.8133 9.95437 10.8133 10.2701V11.7939C10.8133 12.5396 11.2971 13.1681 11.9648 13.3997V14.9242H9.25452V13.3997C9.92215 13.1681 10.4058 12.5396 10.4058 11.7939V10.2701C10.4058 9.95437 10.15 9.6989 9.83461 9.6989H7.53209C7.21666 9.6989 6.96092 9.95437 6.96092 10.2701V11.7939C6.96092 12.5395 7.44458 13.168 8.11218 13.3997V14.9242H6.29185C5.35366 14.9242 4.5446 15.5936 4.36834 16.515C4.36864 16.5689 2.9789 23.66 3.00062 23.7101C2.96906 24.6021 4.15275 24.315 4.6291 24.1988V28.4834C4.6291 28.7991 4.88485 29.0545 5.20027 29.0545H32.7648C33.0802 29.0545 33.336 28.7991 33.336 28.4834V24.1985C33.7379 24.2756 34.5911 24.5577 34.8984 24.0338ZM15.8082 10.8412H16.9684V11.7939C16.9694 12.1171 16.694 12.3745 16.3721 12.3578C16.0612 12.3578 15.8082 12.1046 15.8082 11.7939V10.8412ZM11.9556 10.8412H13.1161V11.7939C13.1171 12.1172 12.8415 12.3746 12.5195 12.3578C12.2086 12.3578 11.9556 12.1046 11.9556 11.7939V10.8412ZM8.10327 10.8412H9.26346V11.7939C9.26445 12.1172 8.98889 12.3746 8.66719 12.3578C8.35623 12.3578 8.10327 12.1046 8.10327 11.7939V10.8412ZM25.8416 12.4622V12.1169C25.8416 12.1169 29.631 12.1172 29.8618 12.1169C29.8618 12.1169 29.8618 12.4622 29.8618 12.4622C29.8618 12.731 29.6432 12.9497 29.3743 12.9497H26.3291C26.0603 12.9497 25.8416 12.731 25.8416 12.4622ZM25.8416 10.1423H29.8618V10.487C29.8618 10.7559 29.6432 10.9746 29.3743 10.9746H26.3291C26.0603 10.9746 25.8416 10.7559 25.8416 10.487L25.8416 10.1423ZM25.8416 14.4367V14.092C25.8416 14.092 29.631 14.0923 29.8618 14.092C29.8618 14.092 29.8618 14.4367 29.8618 14.4367C29.8618 14.7056 29.6432 14.9242 29.3743 14.9242H26.3291C26.0603 14.9242 25.8416 14.7056 25.8416 14.4367ZM20.384 14.4367V14.092H22.7138V14.4367C22.7138 14.7056 22.4952 14.9242 22.2263 14.9242H20.8715C20.6026 14.9242 20.384 14.7056 20.384 14.4367ZM5.49006 16.7297C5.56369 16.3454 5.90087 16.0665 6.29187 16.0665C10.2577 16.0663 31.6732 16.0665 31.6732 16.0665C32.0642 16.0665 32.4014 16.3454 32.475 16.7303L33.6976 23.1113C33.3395 23.0186 33.0818 22.8556 32.7855 22.6657C31.5966 21.7276 29.4904 21.7369 28.3151 22.6658C27.8555 22.9602 27.4926 23.1928 26.6964 23.1928C24.9068 23.147 24.8607 21.9192 22.8424 21.9585C21.7115 21.9584 21.1247 22.3344 20.6068 22.6657C19.7588 23.3611 18.218 23.3627 17.3694 22.6656C16.1939 21.7325 14.0752 21.7331 12.8988 22.6658C12.4389 22.9602 12.0755 23.1928 11.2787 23.1928C10.4808 23.1928 10.1171 22.9602 9.65697 22.6657C8.49974 21.7375 6.35008 21.7315 5.18244 22.6658C4.88534 22.8558 4.62681 23.019 4.26743 23.1116L5.49006 16.7297ZM32.1936 27.9122H5.77147V23.6448C6.6446 22.934 8.16698 22.9212 9.04119 23.6279C10.2248 24.5635 12.3405 24.5581 13.5146 23.6278C13.9745 23.3333 14.3379 23.1007 15.1347 23.1007C16.9241 23.1466 16.97 24.3741 18.9876 24.3351C21.0066 24.374 21.0515 23.1468 22.8424 23.1007C23.6387 23.1007 24.0018 23.3333 24.4614 23.6279C25.6287 24.5582 27.7582 24.5619 28.9314 23.6278C29.3911 23.3333 29.7542 23.1007 30.5504 23.1007C31.3612 23.1012 31.7191 23.3401 32.1936 23.6434L32.1936 27.9122Z" fill="black" stroke="#EFECE7" stroke-width="0.2" mask="url(#path-1-inside-1_719_122)"></path> </svg> 