<?xml version="1.0" encoding="UTF-8"?> <svg xmlns="http://www.w3.org/2000/svg" width="38" height="38" viewBox="0 0 38 38" fill="none"> <g clip-path="url(#clip0_719_98)"> <path d="M28.0933 14.1229L28.0934 14.1228C28.2546 13.9462 28.5288 13.9328 28.7058 14.0932C28.8829 14.2538 28.8973 14.5267 28.7375 14.7043C28.6262 14.828 25.7777 17.912 19 17.9121C12.3384 17.9121 9.38453 14.8347 9.2683 14.7106C9.10452 14.5357 9.11352 14.2612 9.28848 14.0974L9.28849 14.0974C9.46332 13.9336 9.73797 13.9427 9.9017 14.1176L9.90197 14.1179C9.91107 14.1274 10.616 14.8603 12.0811 15.5825C13.4352 16.2501 15.7335 17.0443 19 17.0443C22.3205 17.0443 24.6147 16.2515 25.9561 15.585C27.4059 14.8646 28.0833 14.1338 28.0933 14.1229ZM28.0933 21.059L28.0934 21.0589C28.2546 20.8824 28.5288 20.869 28.7058 21.0294C28.8829 21.19 28.8973 21.4629 28.7375 21.6405C28.6262 21.7641 25.7777 24.8482 19 24.8482C12.3386 24.8482 9.38475 21.771 9.26831 21.6467C9.10453 21.4718 9.11352 21.1973 9.28842 21.0335C9.46341 20.8697 9.73799 20.8786 9.90169 21.0536L9.90197 21.0539C9.91108 21.0635 10.616 21.7963 12.0811 22.5186L12.1032 22.4737L12.0811 22.5186C13.4352 23.1861 15.7335 23.9804 19 23.9804C22.3205 23.9804 24.6147 23.1876 25.9561 22.5211C27.406 21.8007 28.0833 21.0699 28.0933 21.059ZM30.8823 23.0235L30.8484 23.0753L30.9061 23.0976C31.9108 23.4857 32.6734 23.9213 33.184 24.3923C33.6942 24.8628 33.95 25.3656 33.95 25.8905C33.95 26.5392 33.5657 27.1505 32.7979 27.7077C32.03 28.2649 30.8852 28.7628 29.3815 29.184C26.6041 29.9622 22.9173 30.3913 19 30.3913C15.0827 30.3913 11.3959 29.9622 8.61849 29.184L8.605 29.2322L8.61849 29.184C7.11485 28.7628 5.97 28.2649 5.20215 27.7077C4.43431 27.1505 4.05 26.5392 4.05 25.8905C4.05 25.3659 4.30599 24.8631 4.81623 24.3925C5.32696 23.9215 6.08959 23.4858 7.09405 23.0977L7.15178 23.0754L7.11784 23.0237C6.71479 22.4091 6.50589 21.7579 6.50589 21.0872C6.50589 19.8418 7.21475 18.6664 8.58066 17.6593L8.63521 17.6191L8.58068 17.5788C7.22525 16.5782 6.50589 15.3968 6.50589 14.1509C6.50589 12.6249 7.61259 11.1643 9.64886 10.0441C11.5284 9.0102 14.1006 8.31701 16.9064 8.08818L16.922 8.08691L16.934 8.07703L17.5656 7.56014C18.3966 6.87995 19.6033 6.87995 20.4343 7.56014L21.0659 8.07703L21.078 8.08691L21.0935 8.08818C23.8994 8.31707 26.4715 9.01021 28.3511 10.0441C30.3874 11.1643 31.4941 12.6249 31.4941 14.1509C31.4941 15.3968 30.7747 16.5782 29.4193 17.5788L29.3648 17.6191L29.4193 17.6593C30.7852 18.6664 31.4941 19.8418 31.4941 21.0872C31.4941 21.7578 31.2853 22.409 30.8823 23.0235ZM22.6738 11.1401L22.6238 11.1414L22.6738 11.1401C22.6632 10.7337 22.4767 10.3529 22.162 10.0955L19.8847 8.23167C19.6283 8.02175 19.3141 7.91691 19 7.91691C18.6859 7.91691 18.3717 8.02175 18.1153 8.23166C18.1153 8.23167 18.1153 8.23167 18.1153 8.23167L15.8379 10.0955C15.5232 10.3529 15.3367 10.7337 15.3261 11.1401C15.3156 11.5465 15.482 11.9365 15.7828 12.21L15.8164 12.173L15.7828 12.21L18.0601 14.2809L18.0937 14.2439L18.0601 14.2809C18.5958 14.768 19.4041 14.7681 19.9398 14.2809L22.2171 12.21C22.5179 11.9365 22.6843 11.5465 22.6738 11.1401ZM15.5539 9.20663L15.6934 9.09246L15.515 9.11846C13.4119 9.425 11.5166 10.0071 10.0671 10.8044C8.34196 11.7534 7.37363 12.9393 7.37363 14.1509C7.37363 14.8214 7.67751 15.4885 8.23848 16.1093C8.79939 16.73 9.61931 17.3068 10.6579 17.7988C12.8806 18.8518 15.8434 19.4305 19 19.4305C22.1566 19.4305 25.1194 18.8518 27.3421 17.7989C28.3807 17.3069 29.2006 16.73 29.7615 16.1093C30.3225 15.4886 30.6264 14.8215 30.6264 14.151C30.6264 12.9394 29.658 11.7535 27.9329 10.8045C26.4834 10.0071 24.5881 9.42506 22.485 9.11852L22.3066 9.09252L22.4461 9.20669L22.7117 9.42407L22.7433 9.38538L22.7117 9.42407C23.2217 9.84152 23.5241 10.4588 23.5412 11.1176L23.5912 11.1163L23.5412 11.1176C23.5584 11.7765 23.2886 12.4087 22.801 12.8521L22.8346 12.8891L22.801 12.8521L20.5237 14.923C20.0892 15.3181 19.5446 15.5155 19 15.5155C18.4554 15.5155 17.9108 15.3181 17.4763 14.923L15.199 12.852C14.7114 12.4086 14.4416 11.7764 14.4588 11.1176C14.4759 10.4587 14.7783 9.84146 15.2883 9.42401L15.5539 9.20663ZM9.44938 18.1451L9.42246 18.1296L9.39661 18.1469C8.43077 18.7916 7.37363 19.7915 7.37357 21.0871C7.37357 21.7576 7.67745 22.4247 8.23842 23.0454C8.79933 23.6662 9.61925 24.243 10.6578 24.735L10.6792 24.6899L10.6578 24.735C12.8806 25.788 15.8434 26.3667 18.9999 26.3667C22.1565 26.3667 25.1192 25.7881 27.3421 24.735C28.3806 24.243 29.2005 23.6662 29.7615 23.0454C30.3224 22.4247 30.6263 21.7576 30.6263 21.0871C30.6263 19.7915 29.5692 18.7916 28.6034 18.1468L28.5775 18.1295L28.5506 18.1451C28.2879 18.2968 28.009 18.443 27.7136 18.583C25.3806 19.6882 22.2861 20.2982 19 20.2982C15.7139 20.2982 12.6194 19.6883 10.2864 18.583C9.99101 18.4431 9.71211 18.2969 9.44938 18.1451ZM7.75759 23.808L7.73516 23.7852L7.70511 23.796C6.83778 24.1072 6.14423 24.4539 5.66646 24.8086C5.19149 25.1613 4.91774 25.531 4.91774 25.8905C4.91774 26.2349 5.19221 26.6491 5.81079 27.0736C6.43228 27.5 7.41259 27.9451 8.85262 28.3485L8.86611 28.3004L8.85262 28.3485C11.5587 29.1066 15.1625 29.5236 19 29.5236C22.8375 29.5236 26.4413 29.1067 29.1474 28.3485C30.5874 27.9451 31.5677 27.5 32.1892 27.0736C32.8078 26.6491 33.0823 26.2349 33.0823 25.8905C33.0823 25.5305 32.8088 25.1609 32.334 24.8084C31.8564 24.4539 31.1628 24.1075 30.2949 23.796L30.2648 23.7852L30.2424 23.808C29.6185 24.4403 28.7698 25.019 27.7136 25.5193C25.3806 26.6246 22.2861 27.2346 19 27.2346C15.7139 27.2346 12.6194 26.6246 10.2864 25.5193C9.23023 25.019 8.3815 24.4403 7.75759 23.808Z" fill="black" stroke="#EFECE7" stroke-width="0.1"></path> </g> <defs> <clipPath id="clip0_719_98"> <rect width="38" height="38" fill="white"></rect> </clipPath> </defs> </svg> 