<?xml version="1.0" encoding="UTF-8"?> <svg xmlns="http://www.w3.org/2000/svg" width="50" height="50" viewBox="0 0 50 50" fill="none"> <rect width="50" height="50" rx="25" fill="#00CF00"></rect> <path d="M34.3277 10H15.7551C14.2358 10 13 11.2361 13 12.7551V37.2449C13 38.7642 14.2358 40 15.7551 40H34.3277C35.847 40 37.0828 38.7642 37.0828 37.2449V12.7551C37.0828 11.2361 35.847 10 34.3277 10ZM35.2459 37.2449C35.2459 37.7513 34.8338 38.1634 34.3274 38.1634H15.7548C15.2484 38.1634 14.8363 37.7513 14.8363 37.2449L14.8366 12.7551C14.8366 12.2487 15.2487 11.8366 15.7551 11.8366H34.3277C34.8341 11.8366 35.2462 12.2487 35.2462 12.7551L35.2459 37.2449Z" fill="#F8F5F0"></path> <path d="M28.9841 15.7746C28.4124 15.2912 27.8057 15.1873 27.4297 15.2515C26.9875 15.3263 26.6641 15.7088 26.6641 16.1571V28.7385H28.5007V25.2488L30.1316 25.2522H30.1335C30.3767 25.2522 30.6101 25.1556 30.7823 24.9841C30.9548 24.8119 31.052 24.5779 31.052 24.3337C31.0517 19.8142 30.3561 16.9344 28.9841 15.7746ZM28.5004 23.412V18.3852C28.8269 19.2944 29.1434 20.8319 29.2045 23.4135L28.5004 23.412Z" fill="#F8F5F0"></path> <path d="M21.3657 22.5356V28.8211H23.2023V22.5356C24.5487 22.0498 25.5359 20.5265 25.5359 18.7249C25.5359 16.5331 24.0768 14.75 22.2839 14.75C20.4906 14.75 19.0312 16.5331 19.0312 18.7249C19.0316 20.5265 20.018 22.0498 21.3657 22.5356ZM22.2841 16.5866C23.0513 16.5866 23.6992 17.566 23.6992 18.7249C23.6992 19.8836 23.051 20.8626 22.2841 20.8626C21.5166 20.8626 20.8685 19.8835 20.8685 18.7249C20.8682 17.5656 21.5166 16.5866 22.2841 16.5866Z" fill="#F8F5F0"></path> <path d="M19.4023 31.3789H30.6786V33.2155H19.4023V31.3789Z" fill="#F8F5F0"></path> <path d="M19.4023 33.9297H30.6786V35.7663H19.4023V33.9297Z" fill="#F8F5F0"></path> </svg> 