<?xml version="1.0" encoding="UTF-8"?> <svg xmlns="http://www.w3.org/2000/svg" width="50" height="50" viewBox="0 0 50 50" fill="none"> <rect width="50" height="50" rx="25" fill="#00CF00"></rect> <path d="M25 12C17.8304 12 12 17.8304 12 25C12 32.1696 17.8304 38 25 38C32.1696 38 38 32.1696 38 25C38 17.8304 32.1696 12 25 12ZM25 13.7334C31.2328 13.7334 36.2667 18.7674 36.2667 25.0001C36.2667 31.2328 31.2327 36.2668 25 36.2668C18.7673 36.2668 13.7333 31.2328 13.7333 25.0001C13.7333 18.7674 18.7673 13.7334 25 13.7334ZM24.9909 16.3152C24.9607 16.3168 24.9307 16.3197 24.9007 16.3243C24.6869 16.3491 24.49 16.4523 24.3481 16.6141C24.2062 16.7761 24.1297 16.9849 24.1333 17.2001V18.4188C23.3982 18.5248 22.6967 18.7694 22.102 19.1771C21.2764 19.7432 20.6667 20.6953 20.6667 21.8221C20.6667 22.9778 21.3377 23.8892 22.1293 24.4313C22.9206 24.9732 23.8357 25.2811 24.6931 25.6049C25.5505 25.9285 26.3467 26.2635 26.8507 26.6611C27.3547 27.0588 27.5999 27.4252 27.5999 28.1778C27.5999 28.7328 27.3801 29.083 26.9228 29.3966C26.4658 29.7099 25.7536 29.911 25 29.911C22.8801 29.911 22.3277 28.4035 22.3277 28.4035C22.2344 28.1927 22.0611 28.0277 21.8461 27.9447C21.6311 27.8618 21.3919 27.8677 21.1811 27.961C20.9705 28.0543 20.8055 28.2276 20.7225 28.4426C20.6396 28.6576 20.6455 28.8968 20.7388 29.1076C20.7388 29.1076 21.7357 31.1471 24.1333 31.5633V32.8C24.1301 33.0319 24.2199 33.2556 24.3828 33.4208C24.5456 33.5861 24.7681 33.679 25 33.679C25.2319 33.679 25.4544 33.5861 25.6172 33.4208C25.7801 33.2556 25.8699 33.0319 25.8667 32.8V31.5812C26.6018 31.4752 27.3033 31.2306 27.898 30.8229C28.7236 30.2569 29.3333 29.3047 29.3333 28.1779C29.3333 26.9257 28.7121 25.9262 27.9159 25.2979C27.1199 24.6698 26.1828 24.3195 25.3069 23.9889C24.4309 23.6582 23.6128 23.3442 23.1042 22.9958C22.5955 22.6476 22.4001 22.3999 22.4001 21.8222C22.4001 21.2672 22.6199 20.917 23.0772 20.6034C23.5342 20.2901 24.2464 20.089 25 20.089C27.1199 20.089 27.6723 21.5965 27.6723 21.5965C27.7656 21.8073 27.9389 21.9723 28.1539 22.0554C28.3689 22.1382 28.6081 22.1323 28.8189 22.039C29.0295 21.9457 29.1945 21.7724 29.2775 21.5574C29.3604 21.3424 29.3545 21.1032 29.2612 20.8924C29.2612 20.8924 28.2643 18.8529 25.8667 18.4368V17.2001C25.8716 16.9655 25.7811 16.739 25.616 16.5723C25.4512 16.4055 25.2255 16.3128 24.9909 16.3152Z" fill="#F8F5F0"></path> </svg> 