<?xml version="1.0" encoding="UTF-8"?> <svg xmlns="http://www.w3.org/2000/svg" width="50" height="50" viewBox="0 0 50 50" fill="none"> <rect width="50" height="50" rx="25" fill="#00CF00"></rect> <path d="M34.5786 16.9922C34.0253 16.4387 33.3683 15.9995 32.6452 15.6999C31.9221 15.4003 31.1471 15.2461 30.3644 15.2461C29.5817 15.2461 28.8067 15.4003 28.0836 15.6999C27.3605 15.9995 26.7036 16.4387 26.1503 16.9922L25.0019 18.1406L23.8536 16.9922C22.7359 15.8746 21.22 15.2467 19.6394 15.2467C18.0588 15.2467 16.5429 15.8746 15.4253 16.9922C14.3076 18.1099 13.6797 19.6258 13.6797 21.2064C13.6797 22.787 14.3076 24.3029 15.4253 25.4206L16.5736 26.5689L25.0019 34.9972L33.4303 26.5689L34.5786 25.4206C35.1322 24.8673 35.5713 24.2103 35.8709 23.4872C36.1705 22.7641 36.3247 21.9891 36.3247 21.2064C36.3247 20.4237 36.1705 19.6487 35.8709 18.9256C35.5713 18.2025 35.1322 17.5456 34.5786 16.9922Z" stroke="#F8F5F0" stroke-width="2" stroke-linecap="round" stroke-linejoin="round"></path> </svg> 